<svg class="svg-icon" style="width: 1em;height: 1em;vertical-align: middle;fill: currentColor;overflow: hidden;" viewBox="0 0 1024 1024" version="1.1" xmlns="http://www.w3.org/2000/svg"><path d="M676.730435 343.930435c8.904348 8.904348 14.469565 22.26087 14.469565 35.617391 0 13.356522-5.565217 25.6-14.469565 35.617391-8.904348 8.904348-22.26087 14.469565-35.617392 14.469566-13.356522 0-26.713043-5.565217-35.617391-14.469566-8.904348-8.904348-14.469565-22.26087-14.469565-35.617391s5.565217-25.6 14.469565-35.617391c8.904348-8.904348 22.26087-14.469565 35.617391-14.469565 13.356522 0 26.713043 5.565217 35.617392 14.469565z m77.913043 70.121739c-13.356522 0-25.6 5.565217-35.617391 14.469565-8.904348 8.904348-14.469565 22.26087-14.469565 35.617391 0 13.356522 5.565217 26.713043 14.469565 35.617392 8.904348 8.904348 22.26087 14.469565 35.617391 14.469565 13.356522 0 26.713043-5.565217 35.617392-14.469565 8.904348-8.904348 14.469565-22.26087 14.469565-35.617392 0-13.356522-5.565217-25.6-14.469565-35.617391-8.904348-8.904348-22.26087-14.469565-35.617392-14.469565z m-378.434782-24.486957H345.043478v-28.93913c0-15.582609-12.243478-27.826087-27.826087-27.826087S289.391304 345.043478 289.391304 360.626087V389.565217h-28.93913c-15.582609 0-27.826087 12.243478-27.826087 27.826087S244.869565 445.217391 260.452174 445.217391H289.391304v28.939131c0 15.582609 12.243478 27.826087 27.826087 27.826087S345.043478 489.73913 345.043478 474.156522V445.217391h31.165218c15.582609 0 27.826087-12.243478 27.826087-27.826087S391.791304 389.565217 376.208696 389.565217zM1024 735.721739c0 47.86087-26.713043 86.817391-69.008696 103.513044-42.295652 15.582609-109.078261 8.904348-169.182608-58.991305-28.93913-33.391304-77.913043-93.495652-104.626087-126.886956-142.469565 33.391304-278.26087 12.243478-337.252174 0-26.713043 33.391304-75.686957 93.495652-104.626087 126.886956-43.408696 48.973913-90.156522 66.782609-129.113044 66.782609-15.582609 0-28.93913-2.226087-41.182608-6.678261-42.295652-15.582609-69.008696-55.652174-69.008696-103.513043 0-131.33913 84.591304-337.252174 111.304348-398.469566-8.904348-31.165217-5.565217-63.443478 11.130435-92.382608 21.147826-36.730435 58.991304-64.556522 92.382608-66.782609 28.93913-2.226087 67.895652 14.469565 93.495652 26.713043 50.086957-8.904348 208.13913-32.278261 407.373914 0 24.486957-12.243478 64.556522-28.93913 93.495652-26.713043 32.278261 2.226087 71.234783 30.052174 92.382608 66.782609 16.695652 28.93913 21.147826 61.217391 11.130435 92.382608 26.713043 60.104348 111.304348 266.017391 111.304348 397.356522z m-89.043478 0c0-132.452174-110.191304-377.321739-111.304348-379.547826-5.565217-12.243478-5.565217-26.713043 1.113043-38.956522 4.452174-8.904348 4.452174-16.695652 1.113044-24.486956-5.565217-13.356522-18.921739-23.373913-24.486957-25.6-10.017391 1.113043-36.730435 12.243478-57.878261 23.373913-8.904348 4.452174-18.921739 6.678261-28.93913 4.452174-228.173913-40.069565-402.921739-1.113043-404.034783 0-10.017391 2.226087-21.147826 1.113043-31.165217-4.452174-21.147826-11.130435-47.86087-22.26087-57.878261-23.373913-5.565217 3.33913-18.921739 12.243478-24.486956 25.6-3.33913 8.904348-3.33913 15.582609 1.113043 24.486956 5.565217 12.243478 6.678261 26.713043 1.113044 38.956522 0 2.226087-110.191304 247.095652-110.191305 379.547826 0 10.017391 4.452174 16.695652 11.130435 20.034783 15.582609 5.565217 43.408696-3.33913 71.234783-34.504348 38.956522-44.521739 119.095652-144.695652 120.208695-145.808696 11.130435-14.469565 30.052174-20.034783 46.747826-14.469565 2.226087 0 175.86087 48.973913 346.156522 0 4.452174-1.113043 7.791304-2.226087 12.243478-2.226087 13.356522 0 26.713043 5.565217 34.504348 16.695652 1.113043 1.113043 81.252174 101.286957 120.208696 145.808696 27.826087 32.278261 55.652174 41.182609 71.234782 34.504348 7.791304-3.33913 12.243478-10.017391 12.243479-20.034783z"  /></svg>