<svg class="svg-icon" style="width: 1em; height: 1em;vertical-align: middle;fill: currentColor;overflow: hidden;" viewBox="0 0 1024 1024" version="1.1" xmlns="http://www.w3.org/2000/svg"><path d="M998.4 670.72C806.4 519.68 998.4 345.6 998.4 345.6l5.12-5.12-102.4-176.64-10.24 5.12c-33.28 15.36-64 20.48-92.16 20.48-148.48 0-189.44-184.32-189.44-184.32l0-5.12-202.24 0-2.56 10.24C384 158.72 286.72 186.88 212.48 186.88c-48.64 0-87.04-12.8-87.04-12.8L117.76 171.52l-99.84 176.64L25.6 353.28C217.6 504.32 25.6 678.4 25.6 678.4l-5.12 5.12 102.4 176.64 10.24-5.12c35.84-15.36 66.56-20.48 92.16-20.48 148.48 0 189.44 181.76 189.44 181.76l2.56 7.68 202.24 0 2.56-10.24c20.48-145.92 117.76-174.08 192-174.08 48.64 0 87.04 12.8 87.04 12.8l7.68 2.56 102.4-176.64L998.4 670.72zM880.64 793.6c-17.92-2.56-43.52-7.68-69.12-7.68-125.44 0-209.92 66.56-238.08 186.88l-120.32 0c-28.16-79.36-97.28-189.44-230.4-189.44-25.6 0-51.2 5.12-79.36 12.8L84.48 691.2c30.72-35.84 81.92-107.52 76.8-194.56-2.56-58.88-28.16-112.64-79.36-161.28L140.8 230.4c17.92 2.56 43.52 7.68 69.12 7.68 125.44 0 209.92-66.56 238.08-186.88l120.32 0c23.04 64 84.48 189.44 230.4 189.44 25.6 0 51.2-5.12 79.36-12.8l61.44 104.96c-30.72 35.84-81.92 107.52-79.36 194.56 2.56 58.88 28.16 112.64 79.36 161.28L880.64 793.6z"  /><path d="M512 294.4c-125.44 0-227.84 102.4-227.84 227.84s102.4 227.84 227.84 227.84 227.84-102.4 227.84-227.84S637.44 294.4 512 294.4zM512 698.88c-97.28 0-176.64-79.36-176.64-176.64s79.36-176.64 176.64-176.64 176.64 79.36 176.64 176.64S609.28 698.88 512 698.88z"  /></svg>