<svg class="svg-icon" style="width: 1em; height: 1em;vertical-align: middle;fill: currentColor;overflow: hidden;" viewBox="0 0 1024 1024" version="1.1" xmlns="http://www.w3.org/2000/svg"><path d="M968.4992 573.8496c22.6816-26.1632 35.584-69.376 35.584-110.5408 0-27.1872-5.888-50.9952-17.0496-68.864A74.752 74.752 0 0 0 921.6 358.4h-134.0416c72.96-132.6592 91.392-232.6016 54.784-297.3184C816.7936 15.9744 769.9968 0 737.6384 0a25.6 25.6 0 0 0-25.344 22.1696c-9.1648 67.5328-60.8256 148.1216-141.7216 221.0816a795.8528 795.8528 0 0 1-270.6432 159.232 76.9024 76.9024 0 0 0-69.4272-44.032h-153.6c-42.3424 0-76.8 34.4576-76.8 76.8v460.8c0 42.3424 34.4576 76.8 76.8 76.8h153.6c32.4608 0 60.2112-20.224 71.4752-48.7424 100.4032 12.5952 138.1888 32.768 174.7968 52.3264 45.824 24.4736 89.0368 47.616 230.5536 47.616 36.864 0 71.5776-9.6256 97.792-27.0848 25.6-17.0496 41.984-41.0112 47.4112-68.7616 20.4288-8.2944 38.5536-27.4432 52.4288-55.9104 13.5168-27.6992 22.272-63.0784 22.272-90.1632 0-5.0688-0.3072-9.728-0.8704-14.0288 12.9536-9.5232 24.576-24.2176 34.1504-43.5712a221.184 221.184 0 0 0 22.1184-93.4912c0-21.7088-4.0448-39.7824-11.9808-53.8112l-1.9968-3.328zM230.4 921.6h-153.6a25.6 25.6 0 0 1-25.6-25.6v-460.8a25.6 25.6 0 0 1 25.6-25.6h153.6a25.6 25.6 0 0 1 25.6 25.6v460.8a25.6 25.6 0 0 1-25.6 25.6z m708.5568-395.5712c-7.7312 15.5648-15.5648 21.1968-18.944 21.1968a25.6 25.6 0 0 0 0 51.2c2.1504 0 3.6864 0 5.9904 3.9936 3.3792 5.9904 5.3248 16.384 5.3248 28.5696 0 22.784-6.4512 49.8688-16.7936 70.7584-10.1376 20.4288-20.4288 27.8528-24.9344 27.8528a25.6 25.6 0 0 0-13.7728 47.2064c1.5872 16.2304-5.9904 59.648-25.6512 87.9616-7.424 10.7008-15.2576 16.8448-21.4016 16.8448a25.6 25.6 0 0 0-25.6 25.6c0 45.056-49.7664 65.5872-96 65.5872-128.6656 0-164.7104-19.2512-206.4384-41.5744-39.0144-20.8384-82.8416-44.288-193.5872-58.0608V453.9904a847.104 847.104 0 0 0 297.5744-172.6976c81.5616-73.5232 135.1168-152.9856 153.2928-226.6112 13.9264 4.4544 29.6448 13.8752 39.7312 31.6416 17.1008 30.208 29.9008 107.3152-76.4416 284.5184a25.6 25.6 0 0 0 21.9648 38.8096H921.6c10.1888 0 16.7424 3.584 22.016 11.9808 5.9904 9.5744 9.2672 24.4224 9.2672 41.728 0 21.7088-5.2224 45.1584-13.9264 62.72z" fill="" /></svg>